<?xml version="1.0" encoding="UTF-8"?>
<!DOCTYPE svg PUBLIC "-//W3C//DTD SVG 1.1//EN" "http://www.w3.org/Graphics/SVG/1.1/DTD/svg11.dtd">
<svg xmlns="http://www.w3.org/2000/svg" version="1.1" width="48px" height="48px" style="shape-rendering:geometricPrecision; text-rendering:geometricPrecision; image-rendering:optimizeQuality; fill-rule:evenodd; clip-rule:evenodd" xmlns:xlink="http://www.w3.org/1999/xlink">
<g><path style="opacity:1" fill="#ff4b00" d="M 12.5,19.5 C 10.4687,17.4776 8.13535,15.8109 5.5,14.5C 7.35561,9.2159 11.0223,5.7159 16.5,4C 22.7547,2.87322 28.7547,3.53989 34.5,6C 35.5,6.83333 36.5,7.66667 37.5,8.5C 36.018,10.4829 34.3513,12.3163 32.5,14C 28.3211,12.7732 23.9877,12.4399 19.5,13C 16.6424,14.6941 14.309,16.8607 12.5,19.5 Z"/></g>
<g><path style="opacity:0.928" fill="#fdbf07" d="M 5.5,14.5 C 8.13535,15.8109 10.4687,17.4776 12.5,19.5C 12.5,22.1667 12.5,24.8333 12.5,27.5C 10.3428,29.4121 8.00942,31.0787 5.5,32.5C 4.77842,32.0825 4.27842,31.4158 4,30.5C 3.33333,25.8333 3.33333,21.1667 4,16.5C 4.27842,15.5842 4.77842,14.9175 5.5,14.5 Z"/></g>
<g><path style="opacity:1" fill="#2877cd" d="M 39.5,35.5 C 38.5,36.1667 37.5,36.8333 36.5,37.5C 34.8089,36.1363 33.1423,34.803 31.5,33.5C 32.6005,32.3951 33.2671,31.0618 33.5,29.5C 30.6627,27.5977 27.3293,26.931 23.5,27.5C 23.5,24.8333 23.5,22.1667 23.5,19.5C 30.1667,19.5 36.8333,19.5 43.5,19.5C 43.6653,23.1817 43.4986,26.8484 43,30.5C 42.3028,32.5844 41.1361,34.2511 39.5,35.5 Z"/></g>
<g><path style="opacity:1" fill="#5eb04b" d="M 12.5,27.5 C 16.9197,34.6418 22.9197,36.3085 30.5,32.5C 30.5,33.1667 30.8333,33.5 31.5,33.5C 33.1423,34.803 34.8089,36.1363 36.5,37.5C 36.5,38.1667 36.8333,38.5 37.5,38.5C 35.572,40.4741 33.2387,41.9741 30.5,43C 22.8454,44.6295 15.8454,43.2962 9.5,39C 7.76817,37.0281 6.43484,34.8614 5.5,32.5C 8.00942,31.0787 10.3428,29.4121 12.5,27.5 Z"/></g>
<g><path style="opacity:0.902" fill="#6e988a" d="M 33.5,29.5 C 33.2671,31.0618 32.6005,32.3951 31.5,33.5C 30.8333,33.5 30.5,33.1667 30.5,32.5C 31.1667,31.1667 32.1667,30.1667 33.5,29.5 Z"/></g>
<g><path style="opacity:0.086" fill="#6d9588" d="M 39.5,35.5 C 39.573,37.0269 38.9063,38.0269 37.5,38.5C 36.8333,38.5 36.5,38.1667 36.5,37.5C 37.5,36.8333 38.5,36.1667 39.5,35.5 Z"/></g>
</svg>
